<svg width="807" height="340" viewBox="0 0 807 340" fill="none" xmlns="http://www.w3.org/2000/svg">
<path d="M52.3009 301.153H19.9183V322.083H56.1266V338.398H0V250.358H54.2261V266.672H19.8936V285.011H52.2762V301.153H52.3009Z" fill="#555555"/>
<path d="M70.3678 317.838C75.6498 320.676 83.9182 323.366 92.4335 323.366C101.566 323.366 106.428 319.566 106.428 313.79C106.428 308.385 102.232 305.201 91.693 301.474C77.0073 296.266 67.406 288.269 67.406 275.41C67.406 260.403 80.0185 249 100.702 249C110.747 249 117.979 250.999 123.187 253.418L118.794 269.387C115.314 267.734 108.97 265.216 100.43 265.216C91.7671 265.216 87.6205 269.239 87.6205 273.731C87.6205 279.334 92.5075 281.802 103.911 286.097C119.485 291.922 126.717 300.017 126.717 312.457C126.717 327.168 115.462 339.78 91.224 339.78C81.2525 339.78 71.2564 337.065 66.3694 334.301L70.3678 317.838Z" fill="#555555"/>
<path d="M140.243 251.518C146.364 250.481 154.978 249.667 167.121 249.667C179.339 249.667 188.175 252.036 194.049 256.775C199.677 261.144 203.379 268.499 203.379 277.137C203.379 285.776 200.59 293.107 195.333 297.994C188.52 304.386 178.401 307.323 166.751 307.323C164.11 307.323 161.765 307.151 159.964 306.879V338.398H140.243V251.518V251.518ZM159.964 291.453C161.617 291.823 163.666 291.971 166.578 291.971C177.142 291.971 183.683 286.615 183.683 277.705C183.683 269.609 178.129 264.772 168.109 264.772C164.184 264.772 161.42 265.093 159.988 265.438V291.453H159.964Z" fill="#555555"/>
<path d="M268.416 301.153H236.033V322.083H272.241V338.398H216.115V250.358H270.341V266.672H236.008V285.011H268.391V301.153H268.416Z" fill="#555555"/>
<path d="M350.433 335.954C346.879 337.707 338.536 339.755 327.923 339.755C297.441 339.755 281.719 320.701 281.719 295.624C281.719 265.611 303.217 249 329.799 249C340.141 249 348.014 251.024 351.47 252.9L347.422 268.647C343.473 266.919 337.821 265.339 330.712 265.339C315.015 265.339 302.698 274.916 302.698 294.489C302.698 312.136 313.114 323.218 330.836 323.218C336.932 323.218 343.522 322.009 347.471 320.38L350.433 335.954Z" fill="#555555"/>
<path d="M383.458 250.358V338.398H363.564V250.358H383.458Z" fill="#555555"/>
<path d="M421.172 315.789L414.952 338.398H394.367L421.246 250.358H447.285L474.682 338.398H453.234L446.471 315.789H421.172ZM443.534 300.956L438.054 282.247C436.549 277.039 434.994 270.449 433.636 265.29H433.365C432.081 270.473 430.749 277.162 429.342 282.271L424.084 300.956H443.534Z" fill="#555555"/>
<path d="M486.456 250.358H506.349V321.713H541.373V338.398H486.456V250.358Z" fill="#555555"/>
<path d="M573.088 250.358V338.398H553.195V250.358H573.088Z" fill="#555555"/>
<path d="M591.033 317.838C596.315 320.676 604.583 323.366 613.098 323.366C622.231 323.366 627.093 319.566 627.093 313.79C627.093 308.385 622.897 305.201 612.358 301.474C597.672 296.266 588.071 288.269 588.071 275.41C588.071 260.403 600.683 249 621.367 249C631.412 249 638.644 250.999 643.852 253.418L639.459 269.387C635.979 267.734 629.635 265.216 621.095 265.216C612.432 265.216 608.285 269.239 608.285 273.731C608.285 279.334 613.173 281.802 624.576 286.097C640.175 291.922 647.382 300.017 647.382 312.457C647.382 327.168 636.127 339.78 611.889 339.78C601.918 339.78 591.921 337.065 587.034 334.301L591.033 317.838Z" fill="#555555"/>
<path d="M677.913 267.067H654.144V250.358H721.896V267.067H697.807V338.398H677.913V267.067Z" fill="#555555"/>
<path d="M752.872 315.789L746.652 338.398H726.067L752.921 250.358H778.96L806.357 338.398H784.909L778.146 315.789H752.872ZM775.234 300.956L769.754 282.247C768.249 277.039 766.694 270.449 765.336 265.29H765.064C763.781 270.473 762.448 277.162 761.041 282.271L755.784 300.956H775.234Z" fill="#555555"/>
<path d="M531.949 65.2889C522.36 74.9856 512.814 84.7499 503.149 94.3535C499.893 97.5942 498.481 97.3065 493.847 93.5751C488.588 98.508 483.202 103.238 478.255 108.391C476.741 109.965 476.116 112.621 475.642 114.94C472.692 129.394 465.437 142.615 454.832 152.863C453.074 154.598 452.296 155.85 453.505 158.549C457.065 166.461 453.632 174.981 445.827 178.746C444.829 179.22 443.806 179.643 442.851 180.066C444.542 194.239 431.63 203.707 418.498 196.642C410.49 207.642 403.108 209.106 392.285 201.719C388.361 209.131 382.197 212.194 373.86 210.857C372.946 210.713 371.746 211.432 370.892 212.042C359.24 220.351 346.192 215.071 343.554 200.949C343.461 200.416 343.326 199.891 343.224 199.434C331.919 197.124 328.181 193.275 326.186 182.021C308.564 180.041 305.199 163.406 313.358 153.49C311.718 151.67 309.976 149.868 308.361 147.947C300.514 138.847 295.072 127.923 292.532 116.175C290.968 108.822 289.665 107.155 280.153 98.6942C274.166 102.121 273.904 102.079 268.839 97.0019C261.172 89.3247 253.511 81.6446 245.856 73.9618C244.478 72.5741 243.277 71.0088 242 69.5281V66.9897C243.125 65.7628 244.207 64.4936 245.382 63.3175C264.955 43.7098 284.547 24.1219 304.159 4.55376C305.622 3.26692 307.17 2.07967 308.792 1H310.483C312.039 2.38765 313.654 3.70762 315.126 5.17988C322.82 12.8289 330.496 20.5033 338.151 28.2031C342.81 32.8737 342.869 33.2799 339.783 39.1435C343.63 42.9596 347.393 46.9279 351.443 50.6594C354.826 53.8239 359.104 55.2031 363.569 54.0439C370.165 52.3516 376.667 50.7355 383.525 52.2839C384.368 52.3296 385.206 52.1171 385.926 51.6747C397.147 46.2849 408.452 46.3779 419.842 51.0824C426.319 53.7647 431.917 52.3347 436.83 47.5033C438.64 45.7264 440.601 44.1188 442.428 42.4265C436.931 35.1752 436.94 35.1837 443.223 28.8885C450.697 21.4087 458.17 13.9317 465.639 6.45755C470.18 1.93075 471.82 1.93921 476.42 6.5337C493.659 23.7778 510.889 41.0304 528.11 58.2915C529.497 59.6791 530.706 61.2275 532 62.7083L531.949 65.2889ZM377.022 201.846C379.931 201.939 382.096 200.873 383.381 198.106C384.861 194.84 383.313 192.386 381.123 190.178C372.267 181.293 363.406 172.42 354.538 163.558C353.549 162.56 352.001 161.604 351.807 160.436C351.486 158.473 351.342 155.783 352.424 154.513C353.27 153.532 356.187 153.879 358.014 154.319C359.206 154.598 360.119 156.087 361.117 157.086C373.175 169.134 385.23 181.189 397.282 193.249C398.373 194.332 399.548 195.974 400.817 196.109C403.117 196.354 406.381 196.481 407.649 195.144C409.087 193.63 409.23 190.423 409.044 188.012C408.943 186.658 407.133 185.355 405.949 184.162C394.912 173.077 383.863 162.01 372.803 150.96C371.813 149.961 370.266 148.937 370.156 147.795C369.945 145.934 370.088 143.412 371.205 142.228C372.101 141.271 374.748 141.517 376.447 141.94C377.639 142.236 378.578 143.691 379.576 144.69C393.105 158.228 406.651 171.766 420.214 185.304C421.273 186.435 422.418 187.482 423.639 188.435C426.404 190.44 429.254 190.33 431.689 187.969C434.124 185.609 434.352 182.757 432.357 179.956C431.426 178.719 430.394 177.561 429.271 176.496C414.845 162.038 400.408 147.581 385.96 133.123C384.971 132.133 383.516 131.194 383.229 130.001C382.814 128.309 382.603 125.677 383.567 124.772C384.717 123.672 387.228 123.545 389.055 123.773C390.213 123.917 391.245 125.415 392.234 126.405C405.696 139.841 419.152 153.284 432.602 166.731C433.98 168.102 435.528 169.921 437.211 170.201C439.282 170.547 442.284 170.201 443.586 168.847C444.888 167.493 445.176 164.616 444.981 162.433C444.863 161.029 443.239 159.632 442.064 158.456C423.867 140.191 405.645 121.949 387.397 103.729C386.729 103.06 385.977 102.476 384.903 101.537C380.379 106.199 375.999 110.777 371.551 115.287C366.478 120.364 360.415 122.428 353.43 120.761C339.326 117.377 334.557 100.454 344.78 89.7167C352.923 81.1454 361.455 72.9295 369.809 64.5359C370.613 63.6898 371.34 62.8436 372.574 61.456C371.482 61.5842 370.398 61.7763 369.327 62.0313C358.419 65.6697 349.431 62.4798 341.888 54.2808C339.039 51.1924 336.307 48.0025 333.813 45.1934L287.002 92.1028C287.813 93.0506 288.677 93.9518 289.589 94.802C296.354 100.606 300.328 107.731 302.18 116.607C304.649 128.453 311.202 138.378 319.937 146.704C321.289 147.772 322.976 148.323 324.698 148.26C328.673 148.114 332.571 149.382 335.701 151.838C338.831 154.295 340.99 157.782 341.795 161.68C342.057 163.017 342.336 164.354 342.582 165.598C353.287 166.977 356.584 170.217 360.161 182.579C371.205 184.365 374.604 188.215 377.022 201.846ZM448.228 48.451C447.704 49.1786 447.256 49.9063 446.706 50.5578C437.481 61.3883 426.683 64.2313 413.137 58.6468C402.905 54.4162 392.911 56.853 384.184 63.6559C381.697 65.7259 379.336 67.944 377.115 70.298C368.727 78.6522 360.37 87.0288 352.044 95.4281C347.579 99.9549 347.308 105.362 351.139 109.288C354.969 113.214 360.55 112.951 365.032 108.746C366.368 107.494 367.636 106.208 368.93 104.871C375.306 98.4995 381.69 92.179 388.032 85.7399C390.382 83.3623 392.978 81.3316 395.997 84.1746C399.016 87.0176 397.138 89.7506 394.762 92.1197C393.917 92.9658 393.071 93.9389 391.93 95.1743C394.187 97.3234 396.158 99.4895 398.424 101.317C406.034 107.485 414.016 112.418 424.637 109.508C426.007 109.135 428.865 110.971 429.71 112.503C431.097 114.991 429.431 117.233 426.852 118.045C423.842 118.984 420.696 119.458 418.075 120.025L446.14 148.294C456.735 139.06 463.95 126.555 466.645 112.757C467.678 107.334 470.402 102.379 474.424 98.6011C478.576 94.6496 482.652 90.6136 486.575 86.7976L448.228 48.451ZM309.79 13.5904L254.878 68.445L274.893 88.5152L329.704 33.7368L309.79 13.5904ZM519.705 64.079L471.008 15.3673L450.714 35.5983L499.411 84.2423L519.705 64.079ZM325.467 172.147C326.413 172.199 327.359 172.061 328.25 171.741C329.141 171.421 329.959 170.925 330.656 170.283C331.352 169.64 331.912 168.865 332.303 168.002C332.695 167.139 332.909 166.206 332.934 165.259C332.978 164.278 332.825 163.299 332.484 162.378C332.143 161.457 331.62 160.615 330.948 159.9C330.275 159.185 329.466 158.612 328.568 158.216C327.67 157.82 326.702 157.608 325.721 157.593C323.744 157.597 321.848 158.377 320.44 159.764C319.031 161.152 318.222 163.036 318.187 165.014C318.218 166.922 319 168.741 320.363 170.077C321.726 171.412 323.56 172.156 325.467 172.147V172.147ZM343.038 175.134C342.058 175.108 341.083 175.287 340.175 175.659C339.267 176.03 338.446 176.586 337.764 177.292C337.082 177.997 336.554 178.837 336.213 179.757C335.872 180.678 335.726 181.659 335.783 182.639C335.794 183.583 335.992 184.517 336.365 185.385C336.737 186.253 337.278 187.039 337.956 187.697C338.633 188.355 339.434 188.873 340.312 189.22C341.19 189.567 342.128 189.738 343.072 189.721C344.051 189.74 345.024 189.556 345.928 189.181C346.832 188.805 347.649 188.245 348.326 187.538C349.003 186.83 349.526 185.989 349.862 185.069C350.197 184.148 350.339 183.168 350.276 182.19C350.289 181.244 350.108 180.306 349.747 179.432C349.385 178.558 348.849 177.767 348.172 177.107C347.495 176.446 346.69 175.931 345.808 175.592C344.925 175.253 343.983 175.097 343.038 175.134V175.134ZM359.95 206.703C360.901 206.74 361.85 206.585 362.739 206.245C363.628 205.906 364.44 205.39 365.124 204.728C365.809 204.066 366.352 203.272 366.721 202.394C367.09 201.517 367.278 200.573 367.273 199.621C367.344 198.669 367.218 197.712 366.903 196.811C366.588 195.91 366.091 195.084 365.443 194.384C364.794 193.683 364.009 193.124 363.135 192.741C362.261 192.358 361.318 192.16 360.364 192.158C359.399 192.112 358.434 192.259 357.526 192.591C356.619 192.923 355.786 193.432 355.077 194.09C354.368 194.747 353.798 195.539 353.398 196.42C352.999 197.301 352.779 198.252 352.752 199.219C352.724 200.186 352.89 201.148 353.238 202.05C353.587 202.952 354.111 203.776 354.781 204.472C355.452 205.169 356.254 205.725 357.141 206.108C358.029 206.491 358.984 206.693 359.95 206.703V206.703Z" fill="#555555"/>
<path d="M273.379 76.1463C269.473 75.1816 267.553 73.4637 268.238 70.798C268.582 69.8381 269.142 68.9705 269.875 68.263C270.608 67.5554 271.495 67.027 272.466 66.719C273.059 66.5786 273.678 66.5917 274.264 66.757C274.85 66.9222 275.385 67.2342 275.817 67.6636C276.249 68.0929 276.565 68.6254 276.735 69.2108C276.905 69.7962 276.923 70.4153 276.787 71.0095C276.457 72.8459 274.538 74.4538 273.379 76.1463Z" fill="#555555"/>
<path d="M502.794 71.644C501.576 69.9007 499.589 68.259 499.318 66.3887C499.209 65.7923 499.246 65.1782 499.427 64.5995C499.608 64.0208 499.927 63.4949 500.357 63.0673C500.786 62.6398 501.314 62.3235 501.893 62.1458C502.472 61.9681 503.086 61.9343 503.681 62.0474C505.457 62.4452 507.799 64.7809 507.985 66.4649C508.171 68.149 505.855 69.9261 504.645 71.6694L502.794 71.644Z" fill="#555555"/>
</svg>
