<svg width="531" height="393" viewBox="0 0 531 393" fill="none" xmlns="http://www.w3.org/2000/svg">
<rect x="369.183" y="274.529" width="143.012" height="358.529" transform="rotate(135.235 369.183 274.529)" fill="white"/>
<g clip-path="url(#clip0_412_29)">
<path d="M57.3587 139.188C50.2179 137.425 46.7093 134.284 47.9612 129.412C48.5885 127.657 49.6124 126.071 50.9529 124.778C52.2935 123.485 53.9145 122.519 55.6894 121.956C56.7729 121.699 57.9037 121.723 58.9754 122.025C60.047 122.327 61.0241 122.898 61.8144 123.682C62.6047 124.467 63.1823 125.44 63.4925 126.511C63.8028 127.581 63.8355 128.712 63.5877 129.798C62.9849 133.155 59.4763 136.094 57.3587 139.188Z" fill="#555555"/>
<path d="M476.707 130.959C474.481 127.772 470.849 124.771 470.354 121.353C470.154 120.262 470.222 119.14 470.553 118.082C470.883 117.024 471.467 116.063 472.252 115.281C473.038 114.5 474.002 113.922 475.06 113.597C476.119 113.272 477.241 113.21 478.33 113.417C481.575 114.144 485.857 118.414 486.197 121.492C486.537 124.57 482.302 127.819 480.092 131.005L476.707 130.959Z" fill="#555555"/>
<path d="M530 119.342C512.473 137.067 495.022 154.915 477.356 172.469C471.405 178.393 468.824 177.867 460.354 171.046C450.74 180.063 440.894 188.709 431.852 198.128C429.085 201.005 427.942 205.861 427.076 210.099C421.683 236.52 408.422 260.687 389.038 279.42C385.823 282.591 384.401 284.88 386.611 289.813C393.118 304.275 386.843 319.849 372.577 326.732C370.753 327.598 368.883 328.371 367.136 329.145C370.227 355.051 346.625 372.358 322.622 359.443C307.984 379.55 294.491 382.226 274.707 368.723C267.535 382.272 256.267 387.871 241.027 385.427C239.358 385.164 237.163 386.479 235.602 387.592C214.303 402.781 190.454 393.129 185.631 367.316C185.461 366.342 185.214 365.383 185.029 364.547C164.363 360.325 157.532 353.288 153.884 332.717C121.673 329.098 115.521 298.691 130.437 280.565C127.438 277.239 124.254 273.945 121.302 270.434C106.959 253.799 97.0109 233.832 92.3675 212.357C89.508 198.917 87.1278 195.87 69.7393 180.404C58.7962 186.668 58.317 186.59 49.0586 177.31C35.0448 163.277 21.0413 149.239 7.04812 135.195C4.52872 132.659 2.33392 129.797 0 127.091V122.451C2.0557 120.208 4.03412 117.888 6.18256 115.738C41.959 79.8975 77.7715 44.0926 113.62 8.32381C116.295 5.9716 119.125 3.80142 122.09 1.82788H125.181C128.025 4.36438 130.978 6.77715 133.667 9.46832C147.732 23.45 161.762 37.4781 175.755 51.5526C184.271 60.0901 184.379 60.8325 178.738 71.5507C185.771 78.5261 192.649 85.7799 200.052 92.6006C206.235 98.385 214.056 100.906 222.217 98.7872C234.273 95.6939 246.159 92.7398 258.694 95.5701C260.236 95.6536 261.767 95.2652 263.084 94.4566C283.594 84.6044 304.259 84.7745 325.079 93.3739C336.919 98.2768 347.151 95.663 356.131 86.8316C359.439 83.5836 363.025 80.645 366.363 77.5517C356.317 64.297 356.332 64.3124 367.816 52.8054C381.48 39.133 395.138 25.4658 408.791 11.8038C417.091 3.52921 420.09 3.54467 428.498 11.943C460.008 43.4636 491.503 74.9998 522.983 106.551C525.518 109.088 527.728 111.918 530.093 114.625L530 119.342ZM246.808 368.955C252.125 369.126 256.082 367.177 258.431 362.119C261.136 356.149 258.307 351.664 254.304 347.627C238.116 331.387 221.918 315.168 205.709 298.97C203.901 297.145 201.072 295.397 200.717 293.263C200.13 289.674 199.867 284.756 201.845 282.436C203.391 280.642 208.723 281.276 212.062 282.08C214.241 282.591 215.911 285.313 217.734 287.138C239.775 309.162 261.811 331.197 283.841 353.241C285.835 355.221 287.984 358.222 290.302 358.469C294.506 358.918 300.473 359.15 302.791 356.706C305.419 353.937 305.681 348.076 305.341 343.668C305.156 341.193 301.848 338.811 299.684 336.63C279.509 316.369 259.312 296.139 239.095 275.94C237.287 274.115 234.458 272.244 234.257 270.156C233.871 266.753 234.134 262.144 236.174 259.979C237.812 258.231 242.65 258.679 245.757 259.453C247.936 259.994 249.652 262.654 251.476 264.479C276.206 289.226 300.967 313.972 325.759 338.718C327.694 340.786 329.787 342.699 332.019 344.441C337.073 348.107 342.282 347.905 346.734 343.59C351.185 339.275 351.602 334.063 347.955 328.944C346.254 326.681 344.366 324.565 342.313 322.618C315.944 296.191 289.555 269.764 263.145 243.337C261.337 241.527 258.678 239.81 258.153 237.63C257.396 234.536 257.009 229.726 258.771 228.071C260.873 226.061 265.464 225.829 268.802 226.246C270.92 226.509 272.806 229.247 274.614 231.056C299.221 255.617 323.817 280.188 348.403 304.77C350.922 307.275 353.751 310.6 356.827 311.111C360.613 311.745 366.1 311.111 368.481 308.636C370.861 306.162 371.387 300.903 371.031 296.913C370.815 294.345 367.847 291.793 365.699 289.643C332.436 256.256 299.128 222.911 265.773 189.606C264.552 188.384 263.176 187.317 261.213 185.6C252.944 194.122 244.938 202.49 236.808 210.733C227.534 220.013 216.452 223.787 203.685 220.74C177.903 214.554 169.186 183.621 187.873 163.994C202.757 148.326 218.353 133.308 233.624 117.966C235.092 116.419 236.421 114.872 238.678 112.336C236.681 112.57 234.699 112.921 232.743 113.387C212.804 120.038 196.374 114.207 182.587 99.2202C177.378 93.575 172.385 87.7441 167.826 82.6092L82.259 168.355C83.7414 170.088 85.3204 171.735 86.9887 173.289C99.3538 183.899 106.618 196.922 110.003 213.146C114.517 234.799 126.495 252.941 142.462 268.16C144.933 270.113 148.017 271.121 151.164 271.006C158.43 270.739 165.556 273.056 171.277 277.546C176.999 282.037 180.945 288.411 182.417 295.536C182.896 297.98 183.406 300.423 183.854 302.697C203.422 305.218 209.45 311.142 215.988 333.738C236.174 337.002 242.387 344.039 246.808 368.955ZM376.966 88.5638C376.008 89.894 375.189 91.2241 374.184 92.415C357.321 112.212 337.583 117.409 312.822 107.201C294.12 99.4677 275.851 103.922 259.9 116.357C255.353 120.141 251.038 124.195 246.978 128.498C231.645 143.769 216.369 159.081 201.15 174.434C192.989 182.708 192.494 192.591 199.496 199.768C206.498 206.944 216.699 206.465 224.891 198.778C227.333 196.489 229.651 194.138 232.016 191.694C243.67 180.048 255.34 168.495 266.932 156.725C271.229 152.378 275.974 148.667 281.492 153.863C287.01 159.06 283.579 164.056 279.235 168.386C277.69 169.933 276.144 171.712 274.058 173.97C278.184 177.898 281.786 181.858 285.928 185.198C299.839 196.473 314.43 205.49 333.843 200.17C336.347 199.489 341.571 202.846 343.117 205.645C345.652 210.192 342.607 214.291 337.893 215.776C332.39 217.492 326.64 218.358 321.849 219.395L373.149 271.068C392.515 254.189 405.704 231.331 410.63 206.109C412.519 196.197 417.497 187.138 424.85 180.234C432.439 173.011 439.889 165.633 447.061 158.658L376.966 88.5638ZM123.914 24.842L23.5401 125.111L60.1254 161.798L160.314 61.6676L123.914 24.842ZM507.619 117.13L418.606 28.09L381.511 65.0703L470.524 153.987L507.619 117.13ZM152.57 314.668C154.298 314.764 156.028 314.512 157.657 313.926C159.286 313.341 160.782 312.435 162.054 311.261C163.327 310.087 164.351 308.669 165.066 307.092C165.782 305.515 166.173 303.81 166.218 302.078C166.299 300.285 166.019 298.494 165.396 296.812C164.772 295.129 163.817 293.588 162.588 292.282C161.358 290.975 159.879 289.928 158.238 289.204C156.597 288.48 154.827 288.093 153.034 288.066C149.421 288.073 145.955 289.498 143.38 292.034C140.805 294.57 139.327 298.015 139.262 301.63C139.319 305.118 140.748 308.444 143.24 310.884C145.731 313.325 149.084 314.685 152.57 314.668ZM184.689 320.128C182.896 320.082 181.114 320.409 179.454 321.088C177.795 321.767 176.294 322.784 175.047 324.073C173.801 325.363 172.835 326.897 172.212 328.58C171.589 330.262 171.322 332.055 171.427 333.846C171.447 335.573 171.808 337.279 172.49 338.866C173.171 340.453 174.16 341.889 175.398 343.092C176.636 344.296 178.1 345.242 179.705 345.877C181.31 346.512 183.025 346.823 184.75 346.792C186.54 346.828 188.317 346.491 189.97 345.805C191.623 345.118 193.116 344.095 194.354 342.801C195.591 341.507 196.547 339.971 197.161 338.288C197.775 336.606 198.033 334.814 197.919 333.027C197.942 331.298 197.612 329.582 196.951 327.985C196.289 326.387 195.31 324.941 194.072 323.734C192.834 322.528 191.364 321.586 189.751 320.966C188.138 320.345 186.415 320.06 184.689 320.128ZM215.601 377.833C217.34 377.902 219.074 377.618 220.7 376.997C222.325 376.377 223.808 375.433 225.059 374.224C226.31 373.014 227.303 371.563 227.978 369.958C228.653 368.353 228.996 366.629 228.987 364.888C229.116 363.148 228.886 361.4 228.311 359.753C227.735 358.106 226.826 356.595 225.642 355.315C224.457 354.035 223.021 353.013 221.424 352.313C219.827 351.613 218.102 351.25 216.359 351.246C214.594 351.163 212.831 351.432 211.171 352.039C209.512 352.645 207.99 353.576 206.695 354.778C205.399 355.98 204.356 357.428 203.626 359.038C202.896 360.647 202.494 362.387 202.444 364.154C202.394 365.921 202.696 367.68 203.333 369.329C203.97 370.977 204.929 372.483 206.154 373.756C207.379 375.03 208.845 376.046 210.467 376.746C212.09 377.446 213.835 377.816 215.601 377.833Z" fill="#555555"/>
</g>
<defs>
<clipPath id="clip0_412_29">
<rect width="530.093" height="393" fill="white"/>
</clipPath>
</defs>
</svg>
